<svg width="0" height="0" class="hidden">
  <symbol fill="none" xmlns="http://www.w3.org/2000/svg" viewBox="0 0 14 14" id="groupIcon">
    <path d="M7 13.188l-.98-.97C2.38 9.03 0 6.88 0 4.248 0 2.097 1.68.435 3.85.435A4.23 4.23 0 017 1.89 4.224 4.224 0 0110.15.436C12.32.436 14 2.099 14 4.247c0 2.634-2.38 4.783-6.02 7.97l-.98.971z" fill="#FF6B08"></path>
  </symbol>
  <symbol fill="none" xmlns="http://www.w3.org/2000/svg" viewBox="0 0 16 16" id="arrow-right">
    <path d="M3.333 8h9.334M8 12.667L12.667 8 8 3.333" stroke="#000" stroke-width="1.333" stroke-linecap="round" stroke-linejoin="round"></path>
  </symbol>
    <symbol xmlns="http://www.w3.org/2000/svg" viewBox="0 0 32 32" id="close-btn">
    <title>close</title>
    <path fill="none" stroke-width="2.133" stroke="#000" d="M8.533 8.533l14.933 14.933m-14.933.001L23.466 8.534"></path>
  </symbol>
  <symbol fill="none" xmlns="http://www.w3.org/2000/svg" viewBox="0 0 16 16" id="arrow-left">
    <path d="M12.667 8H3.333M8 12.667L3.333 8 8 3.333" stroke="#000" stroke-width="1.333" stroke-linecap="round" stroke-linejoin="round"></path>
  </symbol>
  <symbol fill="none" xmlns="http://www.w3.org/2000/svg" viewBox="0 0 12 12" id="search">
    <path d="M5.5 9.5a4 4 0 100-8 4 4 0 000 8zm5 1L8.325 8.325" stroke="#fff" stroke-linecap="round" stroke-linejoin="round"></path>
  </symbol>
  <symbol fill="none" xmlns="http://www.w3.org/2000/svg" viewBox="0 0 24 24" id="film">
    <path d="M19.82 2H4.18A2.18 2.18 0 002 4.18v15.64A2.18 2.18 0 004.18 22h15.64A2.18 2.18 0 0022 19.82V4.18A2.18 2.18 0 0019.82 2zM7 2v20M17 2v20M2 12h20M2 7h5M2 17h5m10 0h5M17 7h5" stroke="#818181" stroke-width="2" stroke-linecap="round" stroke-linejoin="round"></path>
  </symbol>
</svg>